<svg xmlns="http://www.w3.org/2000/svg" width="154" height="90" viewBox="0 0 154 90">
  <g id="Grupo_25708" data-name="Grupo 25708" transform="translate(7750 8554)">
    <rect id="Retângulo_3005" data-name="Retângulo 3005" width="154" height="90" transform="translate(-7750 -8554)" fill="none"/>
    <g id="efi-bank" transform="translate(-7730 -8554)">
      <path id="Caminho_21248" data-name="Caminho 21248" d="M115.574,51.677a15.7,15.7,0,0,1,9.038,2.926l6.029-6.8a23.823,23.823,0,0,0-14.808-4.993c-12.482,0-21.008,8.266-21.008,20.319V89.3h9.468V71.737h23.675V63.129H104.293c-.171-7.148,4.651-11.452,11.281-11.452" transform="translate(-42.565 -19.217)" fill="#f37021"/>
      <rect id="Retângulo_2817" data-name="Retângulo 2817" width="9.473" height="45.631" transform="translate(95.219 24.452)" fill="#f37021"/>
      <path id="Caminho_21249" data-name="Caminho 21249" d="M172.78,16.963c0,2.237,2.155,3.962,4.9,2.926l14.725-5.423V0L174.588,13.948a3.7,3.7,0,0,0-1.808,3.015" transform="translate(-77.561)" fill="#f37021"/>
      <path id="Caminho_21250" data-name="Caminho 21250" d="M22.727,42.81C9.986,42.81,0,52.366,0,66.144S10.074,90.166,23.675,90.166A24.288,24.288,0,0,0,43.394,80.18l-6.63-5.423A15.982,15.982,0,0,1,23.416,81.3c-7.4,0-12.4-4.216-13.777-11.022H40.092c2.926,0,4.673-1.378,4.673-4.734v-.006c0-10.5-7.578-22.727-22.038-22.727M9.639,61.663c1.378-6.2,6.288-9.986,13.089-9.986s11.452,3.786,12.312,9.986Z" transform="translate(0 -19.217)" fill="#f37021"/>
      <rect id="Retângulo_2821" data-name="Retângulo 2821" width="114.849" height="90" fill="none"/>
      <rect id="Retângulo_2820" data-name="Retângulo 2820" width="2.012" height="12.301" transform="translate(93.913 77.694)" fill="#fff"/>
      <path id="Caminho_21255" data-name="Caminho 21255" d="M103.254,146.789a3.291,3.291,0,0,0,1.428-2.722c0-1.967-1.477-3.086-3.714-3.086H94.84v12.3h6.084c2.728,0,4.249-1.345,4.249-3.4a3.421,3.421,0,0,0-1.919-3.092m-2.556-4.018a1.665,1.665,0,0,1,1.879,1.653,1.7,1.7,0,0,1-1.657,1.787l-.04,0H96.852v-3.439Zm.044,8.718H96.852V148h4.293c1.119,0,1.879.584,1.879,1.609,0,1.163-.937,1.879-2.282,1.879" transform="translate(-42.574 -63.286)" fill="#fff"/>
      <path id="Caminho_21256" data-name="Caminho 21256" d="M183.626,140.98h-2.6l-4.651,5.147a1.34,1.34,0,0,0,0,2.011l4.739,5.147v-.006h2.552l-5.682-6.172Z" transform="translate(-78.973 -63.286)" fill="#fff"/>
      <path id="Caminho_21257" data-name="Caminho 21257" d="M152.41,150.154l-6.025-8.335A1.644,1.644,0,0,0,145,140.97a1.267,1.267,0,0,0-1.207,1.345v10.961H145.8l-.073-9.184,6.025,8.335a1.769,1.769,0,0,0,1.433.849,1.233,1.233,0,0,0,1.163-1.345V140.97h-2.012Z" transform="translate(-64.547 -63.282)" fill="#fff"/>
      <path id="Caminho_21258" data-name="Caminho 21258" d="M122.918,140.98a1.676,1.676,0,0,0-1.609,1.119l-4.789,11.182h2.149l1.013-2.463h6.382l1.014,2.463h2.193L124.483,142.1a1.613,1.613,0,0,0-1.565-1.119m-2.5,8.046,2.454-5.962,2.454,5.962Z" transform="translate(-52.306 -63.286)" fill="#fff"/>
    </g>
  </g>
</svg>